#
#
#

mtllib teapot.mtl


#
# Сетка 
#
g Сетка 

v 0.197323 0.223243 0.315020
v 0.343938 0.271295 0.093628
v 0.343236 0.246828 0.090949
v 0.197701 0.247656 0.318200
v 0.367800 0.246414 0.095577
v -0.065920 0.241441 0.371512
v -0.070356 0.214499 0.392647
v 0.211465 0.221144 0.335653
v -0.065710 0.217041 0.368215
v -0.292767 0.255931 0.225796
v -0.311757 0.229971 0.237078
v -0.299306 0.231621 0.221455
v -0.345399 0.282924 -0.036243
v -0.369132 0.258847 -0.043261
v -0.198655 0.282018 -0.262704
v -0.344568 0.258433 -0.038633
v -0.199162 0.306563 -0.260814
v 0.064458 0.312778 -0.314126
v 0.069024 0.290762 -0.340331
v -0.212797 0.284117 -0.283337
v 0.289685 0.273779 -0.170700
v 0.064378 0.288220 -0.315898
v 0.290269 0.298306 -0.168605
v 0.310425 0.275290 -0.184761
v 0.452753 0.051495 0.091451
v 0.260588 0.020433 0.386543
v 0.491606 -0.128663 0.080095
v -0.085817 0.012266 0.456602
v -0.092603 -0.171216 0.476188
v 0.283159 -0.162357 0.400196
v -0.382538 0.031283 0.265378
v -0.453065 0.066777 -0.079205
v -0.490971 -0.112085 -0.105023
v -0.414470 -0.150587 0.268762
v -0.260900 0.097838 -0.374297
v 0.085505 0.106006 -0.444356
v 0.093237 -0.069532 -0.501116
v -0.282524 -0.078391 -0.425124
v 0.382226 0.086988 -0.253132
v 0.415105 -0.090161 -0.293690
v 0.248142 -0.285328 0.335337
v 0.430533 -0.255846 0.055249
v 0.212940 -0.338363 0.277720
v 0.369275 -0.313093 0.037644
v -0.080650 -0.293080 0.401830
v -0.362284 -0.275029 0.220333
v -0.310282 -0.329536 0.179145
v -0.068881 -0.345008 0.334714
v -0.429222 -0.241341 -0.106729
v -0.246831 -0.211858 -0.386818
v -0.211322 -0.275389 -0.341270
v -0.367657 -0.300660 -0.101194
v 0.081960 -0.204106 -0.453311
v 0.363595 -0.222157 -0.271813
v 0.311900 -0.284217 -0.242695
v 0.070499 -0.268745 -0.398264
v 0.182513 -0.359480 0.230573
v 0.316377 -0.337842 0.025010
v 0.000907 -0.344177 -0.035637
v -0.058796 -0.365169 0.279377
v -0.265493 -0.351921 0.146169
v -0.314624 -0.327196 -0.093871
v -0.180759 -0.305559 -0.299433
v 0.060549 -0.299869 -0.348238
v 0.267246 -0.313117 -0.215029
v -0.391696 0.188059 0.002640
v -0.593018 0.162385 -0.095870
v -0.393451 0.166010 -0.057544
v -0.629638 0.181585 -0.043280
v -0.663512 0.114618 -0.114245
v -0.369034 0.221547 -0.047123
v -0.645347 0.212224 -0.100635
v -0.710812 0.109520 -0.066214
v -0.608731 0.193024 -0.153227
v -0.689905 0.120960 -0.176160
v -0.737205 0.115862 -0.128129
v -0.370789 0.199498 -0.107307
v -0.623300 0.002044 -0.118311
v -0.657488 -0.027172 -0.070296
v -0.670770 -0.044943 -0.132227
v -0.489044 -0.155313 -0.051598
v -0.468137 -0.143873 -0.161544
v -0.466210 -0.187101 -0.108119
v -0.636581 -0.015732 -0.180243
v 0.417568 0.003132 0.079729
v 0.607312 0.039945 0.206931
v 0.586203 0.093534 0.121201
v 0.662573 0.241441 0.151113
v 0.394841 -0.112027 0.190049
v 0.660130 0.003700 0.125912
v 0.727555 0.235431 0.210808
v 0.440836 -0.086861 -0.051834
v 0.418109 -0.202020 0.058487
v 0.744978 0.244964 0.119185
v 0.809960 0.238954 0.178880
v 0.639020 0.057294 0.040183
v 0.693242 0.254913 0.158346
v 0.731040 0.237338 0.192483
v 0.687138 0.241026 0.155741
v 0.760342 0.252471 0.209223
v 0.785395 0.239369 0.174252
v 0.774280 0.260097 0.135925
v 0.841381 0.257655 0.186801
v 0.741493 0.243057 0.137510
v 0.044972 0.390341 0.108266
v 0.078787 0.395825 0.056165
v -0.001158 0.439133 0.045469
v 0.027421 0.323033 0.075149
v 0.048266 0.326403 0.043139
v -0.016147 0.388910 0.120531
v -0.068535 0.392256 0.086881
v -0.042342 0.324210 0.062005
v -0.010155 0.322147 0.082748
v -0.080881 0.398519 0.026084
v -0.047067 0.404003 -0.026017
v -0.029147 0.331430 -0.007383
v -0.049992 0.328060 0.024627
v 0.014052 0.405434 -0.038281
v 0.066441 0.402088 -0.004632
v 0.040616 0.330253 0.005760
v 0.008429 0.332316 -0.014982
v 0.201892 0.286512 0.068201
v 0.115910 0.272613 0.200246
v 0.318671 0.247243 0.086322
v -0.039094 0.268959 0.231590
v -0.061064 0.219583 0.343782
v 0.183181 0.225342 0.294387
v -0.171867 0.277468 0.146028
v -0.203421 0.293350 -0.008160
v -0.320003 0.258018 -0.034005
v -0.270278 0.232992 0.208955
v -0.117438 0.307249 -0.140205
v 0.037565 0.310903 -0.171549
v 0.059732 0.285678 -0.291466
v -0.184513 0.279919 -0.242071
v 0.170339 0.302394 -0.085987
v 0.268946 0.272269 -0.156639
vn -0.563175 0.115313 -0.818252
vn -0.141828 0.986991 0.075722
vn -0.982166 0.048100 -0.181760
vn -0.079564 0.996777 -0.010266
vn 0.823980 0.525713 0.211382
vn 0.025291 0.999157 -0.032342
vn -0.157336 0.455133 0.876413
vn 0.471491 0.470381 0.745948
vn 0.186605 0.155329 -0.970078
vn 0.108398 0.986746 -0.120754
vn -0.698431 0.481394 0.529580
vn 0.812488 -0.217634 -0.540832
vn 0.140342 0.979671 0.143350
vn -0.825717 0.555061 -0.100491
vn 0.563007 -0.051848 0.824824
vn 0.972925 0.086011 0.214522
vn 0.074369 0.973928 0.214320
vn -0.028930 0.970233 0.240439
vn 0.154690 0.625057 -0.765098
vn -0.474341 0.610773 -0.634001
vn -0.825858 -0.028416 0.563161
vn -0.185830 -0.070101 0.980078
vn -0.115470 0.977131 0.178554
vn 0.692107 0.591093 -0.414242
vn 0.935754 0.285075 0.207599
vn 0.536028 0.222094 0.814462
vn 0.976849 -0.126385 0.172604
vn -0.177927 0.203956 0.962676
vn -0.184412 -0.210970 0.959939
vn 0.560206 -0.193214 0.805505
vn -0.788049 0.244433 0.565005
vn -0.937340 0.316676 -0.145292
vn -0.976270 -0.093434 -0.195364
vn -0.820828 -0.169914 0.545318
vn -0.537619 0.381457 -0.751968
vn 0.176341 0.397796 -0.900368
vn 0.184992 -0.008848 -0.982700
vn -0.559625 -0.026996 -0.828306
vn 0.786458 0.359119 -0.502511
vn 0.821408 -0.050295 -0.568119
vn 0.463009 -0.638994 0.614255
vn 0.807041 -0.583160 0.092788
vn 0.333336 -0.853786 0.399922
vn 0.580651 -0.813745 0.025748
vn -0.150854 -0.652932 0.742242
vn -0.675294 -0.619789 0.399799
vn -0.483606 -0.840003 0.246010
vn -0.107301 -0.863855 0.492179
vn -0.804038 -0.555979 -0.210739
vn -0.460001 -0.501990 -0.732397
vn -0.329093 -0.755460 -0.566549
vn -0.576411 -0.794225 -0.192243
vn 0.153858 -0.486207 -0.860192
vn 0.678303 -0.521194 -0.517940
vn 0.487849 -0.769243 -0.412637
vn 0.111540 -0.744115 -0.658675
vn 0.163135 -0.977237 0.135625
vn 0.282555 -0.958149 -0.045961
vn 0.002622 -0.994679 -0.102993
vn -0.050452 -0.982405 0.179818
vn -0.233038 -0.970553 0.060986
vn -0.277528 -0.948700 -0.151481
vn -0.158108 -0.929555 -0.333062
vn 0.055479 -0.924444 -0.377260
vn 0.238065 -0.936239 -0.258422
vn -0.195920 0.165016 0.966636
vn 0.249877 -0.965942 -0.067208
vn 0.036114 -0.994356 -0.099762
vn -0.173768 0.067927 0.982441
vn 0.922185 -0.375083 0.094279
vn -0.047095 0.994274 0.095926
vn -0.437982 0.898863 0.014740
vn -0.473991 0.025043 0.880174
vn 0.188774 0.272029 -0.943591
vn -0.087037 0.203989 -0.975097
vn -0.968926 0.180892 -0.168700
vn 0.163305 0.357250 -0.919622
vn 0.815452 0.543926 0.197945
vn -0.293539 -0.172233 0.940303
vn 0.599656 0.782892 0.165809
vn -0.770271 -0.605097 -0.201345
vn -0.487399 -0.611624 0.623184
vn -0.169596 -0.436159 -0.883744
vn -0.544091 -0.819286 -0.180928
vn 0.083948 0.007786 -0.996440
vn -0.480911 0.876736 -0.007595
vn 0.019744 -0.074830 0.997001
vn -0.737156 0.674163 -0.045883
vn -0.697633 0.716455 -0.000403
vn 0.149846 -0.344399 0.926788
vn 0.775939 -0.627506 0.064457
vn -0.218326 0.196021 0.955986
vn 0.505599 -0.156006 -0.848547
vn 0.638663 -0.768502 0.038929
vn 0.233008 0.414145 -0.879881
vn 0.613738 -0.786579 -0.067968
vn 0.362618 0.080504 -0.928454
vn 0.015080 0.984635 0.173970
vn 0.475145 0.012833 -0.879814
vn 0.936580 -0.311696 0.160195
vn 0.126732 0.667966 0.733321
vn -0.317756 0.947519 0.035194
vn 0.495438 0.787551 -0.366476
vn 0.882964 0.462705 0.079241
vn 0.150267 -0.252005 0.955988
vn 0.538927 0.205352 0.816939
vn 0.940133 0.270784 0.206945
vn -0.002622 0.994679 0.102993
vn 0.473228 0.466257 0.747436
vn 0.827161 0.520542 0.211756
vn -0.178711 0.189289 0.965522
vn -0.792194 0.227809 0.566155
vn -0.696852 0.485945 0.527498
vn -0.158582 0.448287 0.879711
vn -0.941644 0.302532 -0.147582
vn -0.540432 0.365563 -0.757824
vn -0.476057 0.607032 -0.636303
vn -0.830242 0.548149 -0.101150
vn 0.177199 0.384028 -0.906158
vn 0.790689 0.343105 -0.507040
vn 0.694022 0.587343 -0.416366
vn 0.155766 0.619841 -0.769113
vn 0.268088 0.951646 0.149993
vn 0.152197 0.933469 0.324764
vn 0.293351 0.943528 0.153952
vn -0.053703 0.928208 0.368167
vn -0.058457 0.917902 0.392477
vn 0.166495 0.923788 0.344812
vn -0.229417 0.939908 0.252868
vn -0.273130 0.960778 0.048027
vn -0.298352 0.953510 0.042475
vn -0.250335 0.930820 0.266281
vn -0.157240 0.979399 -0.126698
vn 0.048661 0.984216 -0.170148
vn 0.053455 0.979136 -0.196051
vn -0.171498 0.973957 -0.148313
vn 0.224373 0.972961 -0.054802
vn 0.245332 0.966924 -0.069782
vt 0.421096 0.246744
vt 0.435144 0.288551
vt 0.430549 0.287861
vt 0.129952 0.230888
vt 0.139279 0.187194
vt 0.144787 0.191511
vt 0.435144 0.196275
vt 0.425669 0.247343
vt 0.123534 0.284655
vt 0.123419 0.229290
vt 0.443452 0.382252
vt 0.440287 0.342330
vt 0.448219 0.382880
vt 0.130060 0.282678
vt 0.139245 0.320920
vt 0.435144 0.341098
vt 0.448219 0.291102
vt 0.304771 0.217873
vt 0.248610 0.216760
vt 0.304807 0.212869
vt 0.426780 0.329424
vt 0.430339 0.288925
vt 0.214947 0.260094
vt 0.252282 0.221694
vt 0.430339 0.381098
vt 0.421957 0.329889
vt 0.209002 0.312481
vt 0.208697 0.257812
vt 0.435144 0.245949
vt 0.448225 0.290678
vt 0.443509 0.290270
vt 0.252239 0.345199
vt 0.215233 0.311232
vt 0.448225 0.195988
vt 0.439840 0.246258
vt 0.304761 0.344902
vt 0.248564 0.348793
vt 0.327948 0.651406
vt 0.252562 0.473083
vt 0.376654 0.522130
vt 0.192695 0.631986
vt 0.141151 0.449072
vt 0.193128 0.840981
vt 0.076681 0.848145
vt 0.076210 0.621440
vt 0.376551 0.932804
vt 0.328301 0.821435
vt 0.340693 0.809924
vt 0.520059 0.975992
vt 0.416607 0.975798
vt 0.367888 0.794924
vt 0.425020 0.585220
vt 0.457368 0.778731
vt 0.513306 0.547495
vt 0.548394 0.757404
vt 0.442690 0.551711
vt 0.486640 0.406583
vt 0.536086 0.455652
vt 0.738643 0.750902
vt 0.892372 0.976999
vt 0.782140 0.940102
vt 0.637782 0.721135
vt 0.782140 0.516433
vt 0.892372 0.517428
vt 0.845188 0.771766
vt 0.584109 0.234736
vt 0.750178 0.451951
vt 0.624193 0.391109
vt 0.700909 0.259740
vt 0.873522 0.483085
vt 0.724131 0.011542
vt 0.845269 0.005356
vt 0.820077 0.274588
vt 0.193408 0.966866
vt 0.031383 0.875378
vt 0.173627 0.877437
vt 0.058912 0.017964
vt 0.124141 0.029205
vt 0.063888 0.029205
vt 0.013001 0.630515
vt 0.178419 0.064272
vt 0.129206 0.017964
vt 0.526905 0.773172
vt 0.598960 0.930611
vt 0.402664 0.144765
vt 0.408591 0.088286
vt 0.417554 0.135773
vt 0.631227 0.728156
vt 0.402664 0.026665
vt 0.392207 0.089363
vt 0.950133 0.771660
vt 0.991419 0.951239
vt 0.406018 0.320232
vt 0.410968 0.267203
vt 0.421096 0.311256
vt 0.406018 0.205143
vt 0.394202 0.268836
vt 0.929231 0.266630
vt 0.975995 0.449065
vt 0.285572 0.186488
vt 0.288830 0.133702
vt 0.299790 0.176459
vt 0.278813 0.072191
vt 0.272785 0.136605
vt 0.119760 0.038876
vt 0.068169 0.038875
vt 0.093610 0.096341
vt 0.166323 0.068898
vt 0.155880 0.072862
vt 0.155878 0.120460
vt 0.123299 0.163405
vt 0.166322 0.124487
vt 0.119040 0.153784
vt 0.067449 0.153784
vt 0.020864 0.123712
vt 0.063047 0.163405
vt 0.031330 0.119797
vt 0.031331 0.072199
vt 0.020865 0.068123
vt 0.094514 0.335595
vt 0.082730 0.377309
vt 0.082730 0.338041
vt 0.094514 0.382417
vt 0.082730 0.391253
vt 0.157613 0.280343
vt 0.144787 0.329646
vt 0.147541 0.284489
vt 0.154510 0.332891
vt 0.147541 0.349268
vt 0.167549 0.329300
vt 0.170303 0.348922
vt 0.158410 0.355990
vt 0.070946 0.335595
vt 0.070946 0.382417
vt 0.231123 0.385201
vt 0.238973 0.402426
vt 0.225010 0.404085
vt 0.101627 0.402369
vt 0.107051 0.376193
vt 0.113428 0.398067
vt 0.094514 0.375268
vt 0.113428 0.342990
vt 0.436790 0.168208
vt 0.417554 0.139987
vt 0.431319 0.140371
vt 0.436790 0.102787
vt 0.438366 0.022438
vt 0.417554 0.049681
vt 0.426583 0.017964
vt 0.438366 0.089201
vt 0.428872 0.096576
vt 0.244535 0.420035
vt 0.232170 0.425146
vt 0.243235 0.374137
vt 0.230536 0.353091
vt 0.243235 0.348793
vt 0.040589 0.416799
vt 0.024336 0.375382
vt 0.038667 0.379581
vt 0.264852 0.385201
vt 0.247634 0.410777
vt 0.244535 0.387155
vt 0.139354 0.383534
vt 0.113664 0.335595
vt 0.131501 0.342871
vt 0.178419 0.394826
vt 0.193356 0.358888
vt 0.193356 0.399682
vt 0.144787 0.267635
vt 0.175385 0.223132
vt 0.175385 0.280343
vt 0.153865 0.177846
vt 0.167320 0.169479
vt 0.058860 0.375382
vt 0.070946 0.423021
vt 0.032257 0.356184
vt 0.043013 0.342412
vt 0.024043 0.342412
vt 0.032062 0.349597
vt 0.173779 0.281690
vt 0.170303 0.289802
vt 0.170905 0.280343
vt 0.178458 0.348793
vt 0.189352 0.353237
vt 0.257768 0.358936
vt 0.248642 0.358872
vt 0.257768 0.351817
vt 0.156371 0.171900
vt 0.167918 0.163405
vt 0.243235 0.354904
vt 0.245038 0.370026
vt 0.040791 0.335595
vt 0.177998 0.195956
vt 0.175385 0.185989
vt 0.177998 0.179682
vt 0.205907 0.362471
vt 0.212091 0.370256
vt 0.193356 0.370256
vt 0.264885 0.393165
vt 0.282758 0.390624
vt 0.280799 0.395514
vt 0.195173 0.355689
vt 0.211092 0.352967
vt 0.213960 0.385201
vt 0.225010 0.389751
vt 0.217465 0.401208
vt 0.284708 0.407134
vt 0.298892 0.396786
vt 0.300087 0.403117
vt 0.202911 0.390015
vt 0.284708 0.385201
vt 0.282758 0.396848
vt 0.198250 0.401171
vt 0.214295 0.370166
vt 0.228225 0.360740
vt 0.229575 0.366614
vt 0.202911 0.412215
vt 0.214295 0.348793
vt 0.212091 0.360627
vt 0.213960 0.416764
vt 0.268069 0.414219
vt 0.280783 0.402903
vt 0.282758 0.408470
vt 0.225010 0.411950
vt 0.264852 0.405178
vt 0.348167 0.391451
vt 0.323123 0.370589
vt 0.348167 0.384098
vt 0.323123 0.400921
vt 0.304807 0.360120
vt 0.345010 0.423199
vt 0.339295 0.443021
vt 0.304807 0.407915
vt 0.360903 0.397206
vt 0.353473 0.396852
vt 0.375662 0.424662
vt 0.397121 0.404026
vt 0.421409 0.412809
vt 0.387595 0.445324
vt 0.366105 0.384851
vt 0.366105 0.392204
vt 0.397122 0.373695
vt 0.375234 0.351416
vt 0.386921 0.329908
vt 0.421409 0.365014
vt 0.353369 0.379095
vt 0.360800 0.379450
vt 0.344582 0.349954
vt 0.338622 0.327605
vt 0.430549 0.195790
vt 0.144787 0.316782
vt 0.443452 0.290678
vt 0.435144 0.380519
vt 0.443509 0.195790
vt 0.304807 0.341559
vt 0.252436 0.977870
vt 0.437711 0.796062
vt 0.341571 0.637492
vt 0.371843 0.524657
vt 0.673171 0.530382
vt 0.603003 0.032812
vt 0.030843 0.964514
vt 0.013413 0.828882
vt 0.600524 0.544486
vt 0.417554 0.034544
vt 0.991419 0.549114
vt 0.421096 0.212609
vt 0.951274 0.031052
vt 0.293996 0.078490
vt 0.094514 0.398501
vt 0.170303 0.284144
vt 0.244535 0.388721
vt 0.104462 0.335595
vt 0.423658 0.173093
vt 0.425206 0.096576
vt 0.430274 0.048992
vt 0.229575 0.372447
vt 0.020864 0.423021
vt 0.264852 0.412309
vt 0.113428 0.383534
vt 0.153883 0.222141
vt 0.025615 0.335595
vt 0.173779 0.295317
vt 0.175385 0.168966
vt 0.178383 0.163405
vt 0.178383 0.179682
vt 0.246868 0.348793
vt 0.175509 0.197073
vt 0.268066 0.385201
vt 0.204493 0.348793
vt 0.300087 0.389620
vt 0.229575 0.353461
f 1/1/1 2/2/2 3/3/3
f 4/4/4 5/5/5 2/6/2
f 1/1/1 6/7/6 4/8/4
f 4/4/4 7/9/7 8/10/8
f 9/11/9 10/12/10 6/13/6
f 6/14/6 11/15/11 7/9/7
f 12/16/12 13/17/13 10/12/10
f 10/18/10 14/19/14 11/20/11
f 15/21/15 13/22/13 16/2/16
f 17/23/17 14/19/14 13/24/13
f 15/21/15 18/25/18 17/26/17
f 17/23/17 19/27/19 20/28/20
f 21/29/21 18/30/18 22/31/22
f 23/32/23 19/27/19 18/33/18
f 21/29/21 2/34/2 23/35/23
f 23/32/23 5/36/5 24/37/24
f 8/38/8 25/39/25 5/40/5
f 26/41/26 27/42/27 25/39/25
f 8/38/8 28/43/28 26/41/26
f 26/41/26 29/44/29 30/45/30
f 11/46/11 28/43/28 7/47/7
f 31/48/31 29/49/29 28/50/28
f 11/51/11 32/52/32 31/53/31
f 31/53/31 33/54/33 34/55/34
f 20/56/20 32/57/32 14/58/14
f 35/59/35 33/60/33 32/61/32
f 20/62/20 36/63/36 35/59/35
f 35/59/35 37/64/37 38/65/38
f 24/66/24 36/67/36 19/68/19
f 39/69/39 37/70/37 36/67/36
f 24/66/24 25/71/25 39/69/39
f 39/69/39 27/72/27 40/73/40
f 27/74/27 41/75/41 42/76/42
f 42/77/42 43/78/43 44/79/44
f 29/44/29 41/80/41 30/45/30
f 45/81/45 43/78/43 41/82/41
f 29/49/29 46/83/46 45/84/45
f 45/85/45 47/86/47 48/87/48
f 33/54/33 46/88/46 34/55/34
f 49/89/49 47/86/47 46/90/46
f 33/60/33 50/91/50 49/92/49
f 49/93/49 51/94/51 52/95/52
f 37/64/37 50/91/50 38/65/38
f 53/96/53 51/94/51 50/97/50
f 37/70/37 54/98/54 53/99/53
f 53/100/53 55/101/55 56/102/56
f 27/72/27 54/98/54 40/73/40
f 42/103/42 55/101/55 54/104/54
f 44/79/44 57/105/57 58/106/58
f 58/106/58 57/105/57 59/107/59
f 48/108/48 57/105/57 43/78/43
f 57/105/57 60/109/60 59/107/59
f 48/108/48 61/110/61 60/109/60
f 60/109/60 61/110/61 59/107/59
f 52/111/52 61/110/61 47/112/47
f 61/110/61 62/113/62 59/107/59
f 52/111/52 63/114/63 62/113/62
f 62/113/62 63/114/63 59/107/59
f 56/115/56 63/114/63 51/116/51
f 63/114/63 64/117/64 59/107/59
f 56/115/56 65/118/65 64/117/64
f 64/117/64 65/118/65 59/107/59
f 44/79/44 65/118/65 55/119/55
f 65/118/65 58/106/58 59/107/59
f 66/120/66 67/121/67 68/122/68
f 69/123/69 70/124/70 67/121/67
f 71/125/71 69/126/69 66/127/66
f 72/128/72 73/129/73 69/126/69
f 71/125/71 74/130/74 72/128/72
f 72/128/72 75/131/75 76/132/76
f 77/133/77 67/121/67 74/134/74
f 74/135/74 70/136/70 75/137/75
f 73/138/73 78/139/78 70/140/70
f 79/141/79 33/142/80 78/139/78
f 73/143/73 80/144/81 79/145/79
f 80/144/81 81/146/82 79/145/79
f 75/147/75 80/148/81 76/149/76
f 80/148/81 82/150/83 83/151/84
f 75/137/75 78/152/78 84/153/85
f 84/154/85 33/155/80 82/156/83
f 85/157/86 86/158/87 87/159/88
f 86/160/87 88/161/89 87/162/88
f 89/163/90 90/164/91 86/165/87
f 90/166/91 91/167/92 86/168/87
f 92/169/93 90/170/91 93/171/94
f 90/170/91 94/172/95 95/173/96
f 85/157/86 96/174/97 92/175/93
f 96/174/97 88/176/89 94/177/95
f 91/178/92 97/179/98 88/176/89
f 97/180/98 98/181/99 99/182/100
f 95/183/96 100/184/101 91/167/92
f 100/185/101 101/186/102 98/187/99
f 95/173/96 102/188/103 103/189/104
f 102/190/103 101/186/102 103/191/104
f 94/177/95 97/179/98 102/192/103
f 97/193/98 104/194/105 102/195/103
f 105/196/106 106/197/107 107/198/108
f 106/199/107 108/200/109 109/201/110
f 110/202/111 105/196/106 107/198/108
f 110/202/111 108/203/109 105/196/106
f 111/204/112 110/205/111 107/206/108
f 110/207/111 112/208/113 113/209/114
f 114/210/115 111/204/112 107/206/108
f 114/211/115 112/208/113 111/212/112
f 115/213/116 114/210/115 107/206/108
f 114/214/115 116/215/117 117/216/118
f 118/217/119 115/213/116 107/206/108
f 118/218/119 116/215/117 115/219/116
f 119/220/120 118/217/119 107/206/108
f 118/221/119 120/222/121 121/223/122
f 106/224/107 119/220/120 107/206/108
f 106/199/107 120/222/121 119/225/120
f 108/226/109 122/227/123 109/228/110
f 123/229/124 124/230/125 122/227/123
f 108/226/109 125/231/126 123/229/124
f 123/229/124 126/232/127 127/233/128
f 112/234/113 125/231/126 113/235/114
f 128/236/129 126/232/127 125/231/126
f 112/234/113 129/237/130 128/236/129
f 128/236/129 130/238/131 131/239/132
f 116/240/117 129/237/130 117/241/118
f 132/242/133 130/238/131 129/237/130
f 116/240/117 133/243/134 132/242/133
f 132/242/133 134/244/135 135/245/136
f 120/246/121 133/243/134 121/247/122
f 136/248/137 134/244/135 133/243/134
f 120/246/121 122/227/123 136/248/137
f 136/248/137 124/230/125 137/249/138
f 1/1/1 4/8/4 2/2/2
f 4/4/4 8/10/8 5/5/5
f 1/1/1 9/250/9 6/7/6
f 4/4/4 6/14/6 7/9/7
f 9/11/9 12/16/12 10/12/10
f 6/14/6 10/251/10 11/15/11
f 12/16/12 16/252/16 13/17/13
f 10/18/10 13/24/13 14/19/14
f 15/21/15 17/26/17 13/22/13
f 17/23/17 20/28/20 14/19/14
f 15/21/15 22/253/22 18/25/18
f 17/23/17 18/33/18 19/27/19
f 21/29/21 23/35/23 18/30/18
f 23/32/23 24/37/24 19/27/19
f 21/29/21 3/254/3 2/34/2
f 23/32/23 2/255/2 5/36/5
f 8/38/8 26/41/26 25/39/25
f 26/41/26 30/45/30 27/42/27
f 8/38/8 7/47/7 28/43/28
f 26/41/26 28/43/28 29/44/29
f 11/46/11 31/256/31 28/43/28
f 31/48/31 34/257/34 29/49/29
f 11/51/11 14/258/14 32/52/32
f 31/53/31 32/52/32 33/54/33
f 20/56/20 35/259/35 32/57/32
f 35/59/35 38/65/38 33/60/33
f 20/62/20 19/260/19 36/63/36
f 35/59/35 36/63/36 37/64/37
f 24/66/24 39/69/39 36/67/36
f 39/69/39 40/73/40 37/70/37
f 24/66/24 5/261/5 25/71/25
f 39/69/39 25/71/25 27/72/27
f 27/74/27 30/262/30 41/75/41
f 42/77/42 41/82/41 43/78/43
f 29/44/29 45/263/45 41/80/41
f 45/81/45 48/108/48 43/78/43
f 29/49/29 34/257/34 46/83/46
f 45/85/45 46/90/46 47/86/47
f 33/54/33 49/264/49 46/88/46
f 49/89/49 52/265/52 47/86/47
f 33/60/33 38/65/38 50/91/50
f 49/93/49 50/97/50 51/94/51
f 37/64/37 53/266/53 50/91/50
f 53/96/53 56/267/56 51/94/51
f 37/70/37 40/73/40 54/98/54
f 53/100/53 54/104/54 55/101/55
f 27/72/27 42/268/42 54/98/54
f 42/103/42 44/269/44 55/101/55
f 44/79/44 43/78/43 57/105/57
f 48/108/48 60/109/60 57/105/57
f 48/108/48 47/112/47 61/110/61
f 52/111/52 62/113/62 61/110/61
f 52/111/52 51/116/51 63/114/63
f 56/115/56 64/117/64 63/114/63
f 56/115/56 55/119/55 65/118/65
f 44/79/44 58/106/58 65/118/65
f 66/120/66 69/123/69 67/121/67
f 69/123/69 73/270/73 70/124/70
f 71/125/71 72/128/72 69/126/69
f 72/128/72 76/132/76 73/129/73
f 71/125/71 77/271/77 74/130/74
f 72/128/72 74/130/74 75/131/75
f 77/133/77 68/122/68 67/121/67
f 74/135/74 67/272/67 70/136/70
f 73/138/73 79/141/79 78/139/78
f 79/141/79 81/273/82 33/142/80
f 73/143/73 76/274/76 80/144/81
f 80/144/81 83/275/84 81/146/82
f 75/147/75 84/276/85 80/148/81
f 80/148/81 84/276/85 82/150/83
f 75/137/75 70/136/70 78/152/78
f 84/154/85 78/277/78 33/155/80
f 85/157/86 89/278/90 86/158/87
f 86/160/87 91/279/92 88/161/89
f 89/163/90 93/280/94 90/164/91
f 90/166/91 95/183/96 91/167/92
f 92/169/93 96/281/97 90/170/91
f 90/170/91 96/281/97 94/172/95
f 85/157/86 87/159/88 96/174/97
f 96/174/97 87/159/88 88/176/89
f 91/178/92 100/282/101 97/179/98
f 97/180/98 100/283/101 98/181/99
f 95/284/96 103/285/104 100/286/101
f 100/185/101 103/191/104 101/186/102
f 95/173/96 94/172/95 102/188/103
f 102/190/103 104/287/105 101/186/102
f 94/177/95 88/176/89 97/179/98
f 97/193/98 99/288/100 104/194/105
f 106/199/107 105/289/106 108/200/109
f 110/202/111 113/290/114 108/203/109
f 110/207/111 111/212/112 112/208/113
f 114/211/115 117/291/118 112/208/113
f 114/214/115 115/219/116 116/215/117
f 118/218/119 121/292/122 116/215/117
f 118/221/119 119/225/120 120/222/121
f 106/199/107 109/201/110 120/222/121
f 108/226/109 123/229/124 122/227/123
f 123/229/124 127/233/128 124/230/125
f 108/226/109 113/235/114 125/231/126
f 123/229/124 125/231/126 126/232/127
f 112/234/113 128/236/129 125/231/126
f 128/236/129 131/239/132 126/232/127
f 112/234/113 117/241/118 129/237/130
f 128/236/129 129/237/130 130/238/131
f 116/240/117 132/242/133 129/237/130
f 132/242/133 135/245/136 130/238/131
f 116/240/117 121/247/122 133/243/134
f 132/242/133 133/243/134 134/244/135
f 120/246/121 136/248/137 133/243/134
f 136/248/137 137/249/138 134/244/135
f 120/246/121 109/228/110 122/227/123
f 136/248/137 122/227/123 124/230/125
